<svg xmlns="http://www.w3.org/2000/svg" xmlns:xlink="http://www.w3.org/1999/xlink" width="1191" height="202.497" viewBox="0 0 1191 202.497">
  <defs>
    <clipPath id="clip-path">
      <rect id="Retângulo_7" data-name="Retângulo 7" width="1191" height="202.497" transform="translate(0 0)" fill="none"/>
    </clipPath>
  </defs>
  <g id="Grupo_8" data-name="Grupo 8" transform="translate(570 884)">
    <g id="Grupo_7" data-name="Grupo 7" transform="translate(-570 -884)" clip-path="url(#clip-path)">
      <path id="Caminho_1" data-name="Caminho 1" d="M4.633,140.327H16.991q.139,20.767,1.333,24.345t8.075,9.4a53.5,53.5,0,0,0,17.835,9.469A70.712,70.712,0,0,0,66.7,187.189q19.8,0,31.666-10.525a33.622,33.622,0,0,0,11.866-26.236q0-14.452-7.863-22.171-8-7.713-30.333-10.945-33.144-4.775-44.725-10.395A42.292,42.292,0,0,1,9.057,90.057Q2.385,78.818,2.386,63.084q0-26.415,18.588-44.751T80.381,0a151.406,151.406,0,0,1,28.408,2.388,116.8,116.8,0,0,1,24.9,7.874l1.4,3.375a135.252,135.252,0,0,0-3.159,16.026q-.915,7.168-1.615,24.737H118.238q-.7-21.574-2.106-24.242-2.667-4.62-13.552-9.738a57.948,57.948,0,0,0-24.925-5.116q-19.24,0-29.84,9.333T37.212,48.7a27.965,27.965,0,0,0,4.353,15.647,25.534,25.534,0,0,0,12.148,9.82q7.793,3.163,33.491,7.226,23.309,3.51,31.6,6.878,13.619,5.469,20.644,16.7t7.022,28.346q0,29.753-22.75,49.466T61.506,202.495a139.493,139.493,0,0,1-31.878-3.366A134.193,134.193,0,0,1,0,188.04a124.8,124.8,0,0,0,3.369-17.822q1.124-11.084,1.265-29.891" transform="translate(0 0.001)" fill="#ed1c24"/>
      <path id="Caminho_2" data-name="Caminho 2" d="M184.69,202.5q-51.819,0-79.341-26.612T77.824,102.653q0-32.575,13.34-55.4a89.612,89.612,0,0,1,37-35.037Q151.829,0,189.043,0,224.85,0,247.6,11.725t35.035,32.581q12.287,20.853,12.287,51.184,0,32.859-13.479,56.8a93.188,93.188,0,0,1-37.987,37.073Q218.952,202.5,184.69,202.5m5.336-15.167q28.226,0,45.007-20.871t16.782-63.454q0-44.69-19.238-68.585-15.589-19.254-48.027-19.254-30.331,0-46.972,20.1T120.936,97.1q0,30.08,9.128,50.949T153.3,178.125q14.115,9.2,36.723,9.2" transform="translate(93.637 0.001)" fill="#ed1c24"/>
      <path id="Caminho_3" data-name="Caminho 3" d="M195.346,198.231v-7.3a94.713,94.713,0,0,0,14.6-8.566q1.821-38.055,1.824-79.343,0-32.436-.7-61.224-.423-20.5-1.967-23.592a4.914,4.914,0,0,0-2.877-2.739q-2.181-.915-20.432-2.459V1.211q27.1.707,50.272.7,22.466,0,42.55-.7v11.8q-19.28,1.266-22.212,3.371-1.814,1.262-2.584,5.125t-1.187,45.43l-.837,68.387q0,19.244.983,44.515,18.322.985,27.137.983,26.435,0,44.48-4.213,3.721-12.657,7.3-30.19h12.358q-3.169,20.476-5.618,50.834-13.328.978-24.55.983l-50.786-.654-22.726-.328q-15.711-.139-45.033.983" transform="translate(223.548 1.458)" fill="#ed1c24"/>
      <path id="Caminho_4" data-name="Caminho 4" d="M228.79,137.4v-7.5q10.886-.446,12.759-1.428a4.373,4.373,0,0,0,1.875-2.32q.978-2.142,1.218-15.079.476-21.412.476-32.3l-.176-37.741q0-14.99-.976-17.31a3.7,3.7,0,0,0-1.688-1.963Q240.5,20.7,228.79,19.716v-7.5q13.946.446,20.659.445,7.413,0,16.861-.445,20.6,26.29,46.584,57.049,17.291,20.569,29.833,33.982V67.834q0-20.123-.445-34.7-.357-8.675-1.428-10.644a3.1,3.1,0,0,0-1.963-1.52q-1.428-.446-12.492-1.251v-7.5q9.706.446,19.322.445,13.179,0,23.863-.445v7.5q-9.937.625-11.977,1.428a4.682,4.682,0,0,0-1.864,1.249,5.193,5.193,0,0,0-1.064,2.051q-.621,2.141-.732,13.741l-.335,35.689-.178,35.956q0,14.455.626,28.908l-1.165,1.249q-10.85-1.963-15.332-2.587-22.932-25.407-55.415-63.835-16.418-19.432-26.5-32.72v34.68q0,14.174.445,34.143.268,14.71,1.249,16.938a2.766,2.766,0,0,0,1.34,1.516q1.692.982,12.847,1.782v7.5q-14.4-.625-20.613-.624-5.152,0-22.124.624" transform="translate(275.277 14.705)" fill="#c3c3c3"/>
      <path id="Caminho_5" data-name="Caminho 5" d="M303.547,137.4v-4.818a48.943,48.943,0,0,0,8.654-5q1.785-13.916,1.785-58.53,0-30.424-.624-40.329-.268-5.265-1.829-6.647t-13.25-2.364v-7.5q21.038.8,33.248.8l49.118-.8q7.756,0,13.995.63l.626.991a191.862,191.862,0,0,0-2.855,26.128h-7.05q-.446-13.027-1.024-13.92t-4.06-1.694q-7.406-1.606-22.662-1.606-7.5,0-17.489.624-1.16,27.572-1.337,43.9,9.544.625,17.934.624,12.4,0,14.9-.8a3.6,3.6,0,0,0,2.141-2.589q.535-1.6,1.249-11.241h7.672q-.446,15.113-.445,19.674l.445,20.119h-7.672q-.628-11.752-1.606-13.55A3.368,3.368,0,0,0,371,77.984Q366.539,77,350.925,77q-4.908,0-11.509.626-.182,4.713-.179,9.6,0,25.424.892,39.113l17.7.269A218.091,218.091,0,0,0,385.455,125q2.227-8.245,4.283-18.738h7.4a293.354,293.354,0,0,0-2.408,30.516q-8.123.621-15.616.624-4.908,0-19.362-.313-13.474-.314-24.8-.311-14.9,0-31.406.624" transform="translate(358.891 14.705)" fill="#c3c3c3"/>
      <path id="Caminho_6" data-name="Caminho 6" d="M430.3,94.43V87.2q16.236.446,29,.445,11.775,0,25.427-.445v5.711a59.311,59.311,0,0,0-7.493,2.946,133.272,133.272,0,0,0-1.071,15.35q0,4.554,1.071,18.029-17.667,6.365-29.578,8.619a132.269,132.269,0,0,1-24.671,2.256q-34.442,0-53.936-17.89T349.554,75.872q0-29.264,19.9-46.844t57.1-17.577a149.612,149.612,0,0,1,25.16,2.053,119.391,119.391,0,0,1,22.931,6.246l.8,1.337a193.653,193.653,0,0,0-3.838,28.194h-7.493a100.056,100.056,0,0,0-1.161-14.988,34.956,34.956,0,0,0-14.678-9.906,61.384,61.384,0,0,0-21.19-3.3q-22.932,0-36.538,13.929T376.944,73.147q0,25.81,14.321,41.57t35.288,15.759q11.154,0,23.733-5.442A126.32,126.32,0,0,0,451,112.007q0-13.738-1.606-15.169T430.3,94.43" transform="translate(420.578 13.779)" fill="#c3c3c3"/>
      <path id="Caminho_7" data-name="Caminho 7" d="M417.751,137.4v-7.5q10.351-.889,11.866-1.694a3.119,3.119,0,0,0,1.428-1.7q.892-2.142,1.249-14.453.446-19.092.447-30.069,0-14.809-.357-37.652-.36-17.039-1.7-20.877a3.039,3.039,0,0,0-1.428-1.785q-1.428-.892-11.509-1.963v-7.5q18.47.625,23.823.624l44.7-.624q14.541,0,21.19,2.807a22.483,22.483,0,0,1,10.529,9,26.866,26.866,0,0,1,3.882,14.565,29.909,29.909,0,0,1-6.2,18.756q-6.2,8.064-21.547,14.3l19,28.641,14.81,21.948q4.194,5.354,6.246,6.469t6.693,1.205v6.872l-5.266.088q-22.664.178-29.175.535-7.763-12.4-23.2-35.958L464.862,73.518a19.206,19.206,0,0,0,1.337-3.212,47.111,47.111,0,0,0,5.266.445q8.295,0,16.328-6.7t8.028-19.13q0-10.817-6.35-16.806t-19.053-5.988q-4.025,0-10.91.626l-.586,26.343-.753,33.4q0,11.339.89,29.023.707,13.305,1.419,14.911a3.977,3.977,0,0,0,1.95,1.875q1.864,1.074,12.069,1.608v7.5q-16.031-.625-28.417-.624-13.186,0-28.329.624" transform="translate(502.632 14.705)" fill="#c3c3c3"/>
      <path id="Caminho_8" data-name="Caminho 8" d="M545.871,140.113q-32.922,0-50.411-16.909T477.971,76.674q0-20.7,8.478-35.2a56.9,56.9,0,0,1,23.51-22.261q15.033-7.763,38.677-7.764,22.753,0,37.207,7.451A53.746,53.746,0,0,1,608.1,39.6q7.806,13.249,7.808,32.523,0,20.876-8.566,36.09a59.205,59.205,0,0,1-24.136,23.554q-15.569,8.345-37.34,8.343m3.391-9.637q17.935,0,28.6-13.261T588.52,76.9q0-28.4-12.223-43.577-9.9-12.234-30.514-12.234-19.273,0-29.846,12.77T505.363,73.147q0,19.112,5.8,32.371t14.766,19.11q8.966,5.846,23.332,5.847" transform="translate(575.088 13.779)" fill="#c3c3c3"/>
    </g>
  </g>
</svg>
