<?xml version="1.0" encoding="utf-8"?>
<!-- Generator: Adobe Illustrator 26.2.1, SVG Export Plug-In . SVG Version: 6.00 Build 0)  -->
<svg version="1.1" id="Layer_1" xmlns="http://www.w3.org/2000/svg" xmlns:xlink="http://www.w3.org/1999/xlink" x="0px" y="0px"
	 viewBox="0 0 141 141" style="enable-background:new 0 0 141 141;" xml:space="preserve">
<style type="text/css">
	.st0{fill:#ED1C24;}
	.st1{fill:#ED1C24;fill-opacity:0;}
	.st2{fill:#ED1C24;stroke:#FCFCFC;stroke-width:9.417;stroke-linecap:round;stroke-linejoin:round;}
</style>
<g id="Grupo_31" transform="translate(-1403 -2394)">
	<text transform="matrix(1 0 0 1 1374 2620)" style="fill:#FFFFFF; font-family:'Arial-BoldMT'; font-size:38px;">Gravações </text>
	<text transform="matrix(1 0 0 1 1383 2674)" style="fill:#FFFFFF; font-family:'Arial-BoldMT'; font-size:38px;">das aulas</text>
	<g id="Circle_Button" transform="translate(1450.51 2393.606)">
		<path id="Area" class="st0" d="M23,0.4L23,0.4c38.9,0,70.5,31.6,70.5,70.5l0,0c0,38.9-31.6,70.5-70.5,70.5l0,0
			c-38.9,0-70.5-31.6-70.5-70.5l0,0C-47.5,32-15.9,0.4,23,0.4z"/>
		<g id="Icon" transform="translate(41.959 41.959)">
			<rect id="Area-2" x="-48.5" y="0.4" class="st1" width="58" height="57"/>
			<g id="Icon-2" transform="translate(2.217 11.665)">
				<path id="Path" class="st2" d="M5.6,4.9l-17.1,12.2L5.6,29.2V4.9z"/>
				<path id="Rect" class="st2" d="M-46,0h32.6c1.1,0,2,0.9,2,2v30.1c0,1.1-0.9,2-2,2H-46c-1.1,0-2-0.9-2-2V2C-48,0.9-47.1,0-46,0z"
					/>
			</g>
		</g>
	</g>
</g>
</svg>
