<?xml version="1.0" encoding="utf-8"?>
<!-- Generator: Adobe Illustrator 26.2.1, SVG Export Plug-In . SVG Version: 6.00 Build 0)  -->
<svg version="1.1" id="Layer_1" xmlns="http://www.w3.org/2000/svg" xmlns:xlink="http://www.w3.org/1999/xlink" x="0px" y="0px"
	 viewBox="0 0 140 141" style="enable-background:new 0 0 140 141;" xml:space="preserve">
<style type="text/css">
	.st0{fill:#ED1C24;}
	.st1{fill:#ED1C24;fill-opacity:0;}
	.st2{fill:#ED1C24;stroke:#FCFCFC;stroke-width:7.417;stroke-linecap:round;stroke-linejoin:round;}
</style>
<g id="Grupo_32" transform="translate(-1027 -2394)">
	<text transform="matrix(1 0 0 1 1041 2620)" style="fill:#FFFFFF; font-family:'Arial-BoldMT'; font-size:38px;">+1000 </text>
	<text transform="matrix(1 0 0 1 1014 2674)" style="fill:#FFFFFF; font-family:'Arial-BoldMT'; font-size:38px;">imagens</text>
	<g id="Circle_Button" transform="translate(1041.401 2393.606)">
		<path id="Area" class="st0" d="M55.6,0.4L55.6,0.4c38.7,0,70,31.3,70,70v1c0,38.7-31.3,70-70,70l0,0c-38.7,0-70-31.3-70-70v-1
			C-14.4,31.7,16.9,0.4,55.6,0.4z"/>
		<g id="Icon" transform="translate(40.983 41.959)">
			<rect id="Area-2" x="-14.4" y="0.4" class="st1" width="60" height="57"/>
			<g id="Icon-2" transform="translate(7.057 6.837)">
				<path id="Rect" class="st2" d="M-12,0h40c1.1,0,2,0.9,2,2v40c0,1.1-0.9,2-2,2h-40c-1.1,0-2-0.9-2-2V2C-14,0.9-13.1,0-12,0z"/>
				<circle id="Path" class="st2" cx="-0.6" cy="13.4" r="3.7"/>
				<path id="Path-2" class="st2" d="M30,29.3L17.7,17.1L-9.1,44"/>
			</g>
		</g>
	</g>
</g>
</svg>
