<?xml version="1.0" encoding="utf-8"?>
<!-- Generator: Adobe Illustrator 26.2.1, SVG Export Plug-In . SVG Version: 6.00 Build 0)  -->
<svg version="1.1" id="Layer_1" xmlns="http://www.w3.org/2000/svg" xmlns:xlink="http://www.w3.org/1999/xlink" x="0px" y="0px"
	 viewBox="0 0 141.3 141.4" style="enable-background:new 0 0 141.3 141.4;" xml:space="preserve">
<style type="text/css">
	.st0{fill:#ED1C24;}
	.st1{fill:#ED1C24;fill-opacity:0;}
	.st2{fill:#ED1C24;stroke:#FBFBFB;stroke-width:7.417;stroke-linecap:round;stroke-linejoin:round;}
</style>
<g id="Grupo_35" transform="translate(-247 -2394)">
	<text transform="matrix(1 0 0 1 204.7217 2620.446)" style="fill:#FFFFFF; font-family:'Arial-BoldMT'; font-size:38px;">4 Encontros </text>
	<text transform="matrix(1 0 0 1 249.7217 2674.446)" style="fill:#FFFFFF; font-family:'Arial-BoldMT'; font-size:38px;">ao vivo</text>
	<g id="Circle_Button" transform="translate(290 2394)">
		<path id="Area" class="st0" d="M28,0c38.8,0,70.3,31.5,70.3,70.3l0,0v0.8c0,38.8-31.5,70.3-70.3,70.3S-42.3,110-42.3,71.1v-0.8
			C-42.3,31.5-10.8,0,28,0C28,0,28,0,28,0z"/>
		<g id="Icon" transform="translate(41.657 41.379)">
			<rect id="Area-2" x="-41.9" y="0.4" class="st1" width="57" height="57"/>
			<g id="Icon-2" transform="translate(1.884 9.279)">
				<path id="Path" class="st2" d="M-42.3,19.5c0,0,9.8-19.5,26.9-19.5s26.9,19.5,26.9,19.5S1.7,39.1-15.4,39.1
					S-42.3,19.5-42.3,19.5z"/>
				<circle id="Path-2" class="st2" cx="-15.4" cy="19.5" r="7.3"/>
			</g>
		</g>
	</g>
</g>
</svg>
