<?xml version="1.0" encoding="utf-8"?>
<!-- Generator: Adobe Illustrator 26.2.1, SVG Export Plug-In . SVG Version: 6.00 Build 0)  -->
<svg version="1.1" id="Layer_1" xmlns="http://www.w3.org/2000/svg" xmlns:xlink="http://www.w3.org/1999/xlink" x="0px" y="0px"
	 viewBox="0 0 140.6 141.4" style="enable-background:new 0 0 140.6 141.4;" xml:space="preserve">
<style type="text/css">
	.st0{fill:#ED1C24;}
	.st1{fill:#FFFFFF;stroke:#FFFFFF;stroke-width:3;}
</style>
<g id="Grupo_34" transform="translate(-642 -2394)">
	<text transform="matrix(1 0 0 1 637 2620.446)" style="fill:#FFFFFF; font-family:'Arial-BoldMT'; font-size:38px;">+20h de</text>
	<text transform="matrix(1 0 0 1 618 2674.446)" style="fill:#FFFFFF; font-family:'Arial-BoldMT'; font-size:38px;">Conteúdo</text>
	<g id="Circle_Button" transform="translate(606 2381)">
		<path id="Area" class="st0" d="M106.3,13c38.8,0,70.3,31.5,70.3,70.3l0,0v0.8c0,38.8-31.5,70.3-70.3,70.3S36,123,36,84.1v-0.8
			C36,44.5,67.5,13,106.3,13C106.3,13,106.3,13,106.3,13z"/>
	</g>
	<g id="Grupo_36" transform="translate(710.83 2432.723)">
		<path id="Caminho_10" class="st1" d="M21.8,56h-39.7c-5.5,0-10-4.5-10-10V18c0-2.5,1-5,2.7-6.9c0.8-0.8,2-0.8,2.8-0.1
			c0.8,0.8,0.8,2,0.1,2.8c-1,1.1-1.6,2.6-1.6,4.1v28c0,3.3,2.7,6,6,6h39.7c3.3,0,6-2.7,6-6V18c0-3.3-2.7-6-6-6h-37.1
			c-1.1,0-2-0.9-2-2s0.9-2,2-2h37.1c5.5,0,10,4.5,10,10v28C31.8,51.5,27.4,56,21.8,56z"/>
		<path id="Caminho_11" class="st1" d="M-5.1,43.8c-1.7,0-3-1.3-3-3V23.2c0-1.7,1.3-3,3-3c0.5,0,1,0.1,1.4,0.4l16.4,8.8
			c1,0.5,1.3,1.7,0.8,2.7c-0.5,1-1.7,1.3-2.7,0.8l-14.9-8v14.2l9-4.8C5.8,33.7,7.1,34,7.6,35c0.6,0.9,0.3,2.2-0.7,2.7
			c-0.1,0-0.1,0.1-0.2,0.1l-10.5,5.6C-4.1,43.7-4.6,43.8-5.1,43.8z"/>
	</g>
</g>
</svg>
